<svg width="27" height="27" viewBox="0 0 27 27" fill="none" xmlns="http://www.w3.org/2000/svg">
<path d="M9.13718 19.776C9.67693 17.962 12.2487 16.6393 13.3465 16.6393C14.4442 16.6393 17.016 17.962 17.5558 19.776M9.13718 19.776C10.3462 20.5691 11.7925 21.0303 13.3465 21.0303C14.9005 21.0303 16.3467 20.5691 17.5558 19.776M9.13718 19.776C7.04429 18.4031 5.66211 16.036 5.66211 13.346C5.66211 9.10203 9.10252 5.66162 13.3465 5.66162C15.2275 5.66162 16.9507 6.33749 18.2864 7.45964M17.5558 19.776C19.6487 18.4031 21.0308 16.036 21.0308 13.346C21.0308 12.1674 20.7655 11.0508 20.2913 10.0527M15.542 11.1505C15.542 12.6661 14.559 14.4437 13.3465 14.4437C12.1339 14.4437 11.1509 12.6661 11.1509 11.1505C11.1509 9.63475 12.1339 8.95492 13.3465 8.95492C14.559 8.95492 15.542 9.63475 15.542 11.1505Z" stroke="white" stroke-width="1.64665" stroke-linecap="round"/>
</svg>
