<svg width="24" height="24" viewBox="0 0 24 24" fill="none" xmlns="http://www.w3.org/2000/svg">
<path d="M10.125 18.825C10.7431 18.9419 11.3709 19.0005 12 19C16.478 19 20.268 16.057 21.543 12C21.1997 10.9081 20.671 9.88346 19.98 8.971M14.122 9.879C13.5593 9.31634 12.7962 9.00025 12.0005 9.00025C11.2048 9.00025 10.4416 9.31634 9.87897 9.879C9.31631 10.4417 9.00021 11.2048 9.00021 12.0005C9.00021 12.7962 9.31631 13.5593 9.87897 14.122M14.122 9.879L9.87897 14.122M14.122 9.879L9.87997 14.12M9.87897 14.122L6.58797 17.412M14.12 9.88L17.41 6.59M17.41 6.59L21 3M17.41 6.59C15.7976 5.54957 13.9189 4.9974 12 5C7.52197 5 3.73197 7.943 2.45697 12C3.16092 14.2305 4.62259 16.1446 6.58897 17.411M17.41 6.59L6.58897 17.411M6.58897 17.411L2.99997 21" stroke="#3F3F46" stroke-width="2" stroke-linecap="round" stroke-linejoin="round"/>
</svg>
