<svg width="19" height="14" viewBox="0 0 19 14" fill="none" xmlns="http://www.w3.org/2000/svg">
<path d="M13.9295 2.72285C12.7266 2.03809 11.3623 1.55029 9.9164 1.55029C6.53759 1.55029 3.60444 4.21398 2.13574 5.83015C1.50334 6.52605 1.50334 7.5522 2.13574 8.24809C3.60444 9.86426 6.53759 12.528 9.9164 12.528C13.2952 12.528 16.2284 9.86426 17.6971 8.24809C18.3295 7.5522 18.3285 6.52484 17.696 5.82899C17.2816 5.37306 16.7508 4.83388 16.1263 4.29471M12.1119 7.03912C12.1119 8.25168 11.129 9.23465 9.9164 9.23465C8.70385 9.23465 7.72087 8.25168 7.72087 7.03912C7.72087 5.82656 8.70385 4.84359 9.9164 4.84359C11.129 4.84359 12.1119 5.82656 12.1119 7.03912Z" stroke="white" stroke-width="1.64665" stroke-linecap="round" stroke-linejoin="round"/>
</svg>
