<svg width="18" height="19" viewBox="0 0 18 19" fill="none" xmlns="http://www.w3.org/2000/svg">
<path d="M13.1011 0.0649414V1.46458H15.5946L13.2327 3.84815C12.3885 3.2106 11.3596 2.86521 10.3017 2.86421C8.993 2.86421 7.77107 3.38208 6.84588 4.30793C6.38856 4.75972 6.02548 5.2978 5.77769 5.89097C5.52991 6.48414 5.40235 7.12059 5.40242 7.76343C5.40248 8.40626 5.53017 9.04269 5.77807 9.63581C6.02598 10.2289 6.38916 10.7669 6.84658 11.2186C7.45544 11.8275 8.18048 12.2649 8.9895 12.4867C9.06928 12.4258 9.15886 12.3621 9.23025 12.2907C9.52359 11.9924 9.73437 11.623 9.84191 11.2186C9.07991 11.1249 8.37141 10.7782 7.82986 10.234C7.16921 9.57406 6.80249 8.69789 6.80249 7.76293C6.80249 6.82798 7.16991 5.9532 7.83126 5.29258C8.49051 4.62985 9.36672 4.26384 10.3017 4.26384C11.2367 4.26384 12.1122 4.63125 12.7722 5.29258C13.0986 5.61579 13.3576 6.00058 13.5342 6.42463C13.7108 6.84869 13.8014 7.30358 13.8009 7.76293C13.8009 8.36827 13.6295 8.93163 13.3418 9.44669C13.409 9.8078 13.451 10.1871 13.451 10.5622C13.451 10.9116 13.4219 11.2546 13.3635 11.5909C13.5035 11.4769 13.6281 11.3474 13.7575 11.2186C14.6827 10.2921 15.2006 9.07159 15.2006 7.76293C15.2006 6.69221 14.8479 5.67468 14.2166 4.8321L16.6003 2.47091V4.96366H18V0.0649414H13.1011ZM8.81454 5.83843C8.73476 5.89932 8.64518 5.963 8.5738 6.03438C8.27146 6.3381 8.07411 6.70621 7.96213 7.1072C8.72496 7.20518 9.42131 7.53829 9.97418 8.09115C10.6355 8.75107 11.003 9.62724 11.003 10.5615C11.003 11.4958 10.6355 12.3712 9.97418 13.0319C9.31353 13.6953 8.43733 14.0613 7.50233 14.0613C6.56734 14.0613 5.69184 13.6939 5.03188 13.0326C4.70515 12.7096 4.44593 12.3248 4.26932 11.9007C4.0927 11.4766 4.00221 11.0216 4.00311 10.5622C4.00311 9.95686 4.17457 9.39351 4.46221 8.87844C4.39274 8.51059 4.3562 8.13727 4.35303 7.76293C4.35303 7.41396 4.38219 7.07104 4.44051 6.7342C4.30054 6.84827 4.17667 6.97774 4.0465 7.1072C3.12271 8.03166 2.60342 9.25354 2.60342 10.5622C2.60342 11.6329 2.95614 12.6505 3.5874 13.493L2.40746 14.6736L1.00778 13.274L0 14.2579L1.39969 15.6576L0 17.0572L1.00778 18.0649L2.40746 16.6653L3.80715 18.0649L4.79044 17.0572L3.39075 15.6576L4.57208 14.4777C5.41546 15.1162 6.44449 15.4615 7.50233 15.4609C8.81104 15.4609 10.033 14.9431 10.9582 14.0172C11.8834 13.0927 12.4012 11.8709 12.4012 10.5622C12.4012 9.25354 11.8834 8.03306 10.9575 7.1065C10.3486 6.49766 9.62356 6.06028 8.81454 5.83843Z" fill="#F7F9FB"/>
</svg>
