<svg width="19" height="19" viewBox="0 0 19 19" fill="none" xmlns="http://www.w3.org/2000/svg">
<path d="M2.83875 2.83875C2.54181 3.13568 2.375 3.53841 2.375 3.95833V4.75C2.375 11.3082 7.69183 16.625 14.25 16.625H15.0417C15.4616 16.625 15.8643 16.4582 16.1613 16.1613C16.4582 15.8643 16.625 15.4616 16.625 15.0417V12.4458C16.625 12.2796 16.5728 12.1176 16.4756 11.9827C16.3784 11.8479 16.2412 11.747 16.0835 11.6945L12.5265 10.5086C12.3458 10.4485 12.1494 10.4556 11.9734 10.5286C11.7975 10.6016 11.6538 10.7356 11.5686 10.906L10.674 12.6928C8.73562 11.817 7.18304 10.2644 6.30721 8.32596L8.094 7.43138C8.26441 7.34623 8.3984 7.2025 8.4714 7.02655C8.5444 6.8506 8.55151 6.65423 8.49142 6.47346L7.3055 2.9165C7.25302 2.75892 7.1523 2.62184 7.01762 2.52466C6.88293 2.42748 6.72109 2.37513 6.555 2.375H3.95833C3.53841 2.375 3.13568 2.54181 2.83875 2.83875Z" stroke="#F7F9FB" stroke-width="1.78125" stroke-linecap="round" stroke-linejoin="round"/>
</svg>
