<svg width="27" height="28" viewBox="0 0 27 28" fill="none" xmlns="http://www.w3.org/2000/svg">
<path d="M9.13706 20.4561C9.67681 18.6422 12.2486 17.3195 13.3463 17.3195C14.4441 17.3195 17.0159 18.6422 17.5556 20.4561M9.13706 20.4561C10.3461 21.2492 11.7924 21.7105 13.3463 21.7105C14.9003 21.7105 16.3466 21.2492 17.5556 20.4561M9.13706 20.4561C7.04416 19.0833 5.66199 16.7161 5.66199 14.0262C5.66199 9.7822 9.10239 6.3418 13.3463 6.3418C15.2274 6.3418 16.9506 7.01767 18.2863 8.13981M17.5556 20.4561C19.6485 19.0833 21.0307 16.7161 21.0307 14.0262C21.0307 12.8476 20.7654 11.731 20.2912 10.7329M15.5419 11.8306C15.5419 13.3463 14.5589 15.1239 13.3463 15.1239C12.1338 15.1239 11.1508 13.3463 11.1508 11.8306C11.1508 10.3149 12.1338 9.63509 13.3463 9.63509C14.5589 9.63509 15.5419 10.3149 15.5419 11.8306Z" stroke="#F7F9FB" stroke-width="1.64665" stroke-linecap="round"/>
</svg>
