<svg width="39" height="39" viewBox="0 0 39 39" fill="none" xmlns="http://www.w3.org/2000/svg">
<path d="M15 17.5V29.5M24 17.5V29.5M1.5 9.5H37.5M35.25 9.5L33.2992 33.784C33.2184 34.7932 32.7104 35.7376 31.8775 36.4271C31.0446 37.1167 29.9487 37.5 28.8105 37.5H10.1895C9.05131 37.5 7.9554 37.1167 7.12249 36.4271C6.28958 35.7376 5.78156 34.7932 5.70075 33.784L3.75 9.5H35.25ZM26.25 9.5V3.5C26.25 2.96957 26.0129 2.46086 25.591 2.08579C25.169 1.71071 24.5967 1.5 24 1.5H15C14.4033 1.5 13.831 1.71071 13.409 2.08579C12.9871 2.46086 12.75 2.96957 12.75 3.5V9.5H26.25Z" stroke="#F7F9FB" stroke-width="3" stroke-linecap="round" stroke-linejoin="round"/>
</svg>
